<mxfile host="65bd71144e">
    <diagram id="sSGZBHR1mXRVG8LJEZ3v" name="Page-1">
        <mxGraphModel dx="1093" dy="806" grid="1" gridSize="10" guides="1" tooltips="1" connect="1" arrows="1" fold="1" page="1" pageScale="1" pageWidth="1169" pageHeight="827" math="0" shadow="0">
            <root>
                <mxCell id="0"/>
                <mxCell id="1" parent="0"/>
                <mxCell id="40" style="edgeStyle=none;html=1;exitX=1;exitY=0.5;exitDx=0;exitDy=0;entryX=0;entryY=0.5;entryDx=0;entryDy=0;fontSize=12;fontColor=#808080;" edge="1" parent="1" source="2" target="18">
                    <mxGeometry relative="1" as="geometry"/>
                </mxCell>
                <mxCell id="2" value="" style="rounded=0;whiteSpace=wrap;html=1;" vertex="1" parent="1">
                    <mxGeometry x="210" y="330" width="130" height="160" as="geometry"/>
                </mxCell>
                <mxCell id="3" value="X&lt;sub&gt;1&lt;/sub&gt;" style="ellipse;whiteSpace=wrap;html=1;aspect=fixed;" vertex="1" parent="1">
                    <mxGeometry x="260" y="350" width="30" height="30" as="geometry"/>
                </mxCell>
                <mxCell id="4" value="X&lt;span style=&quot;font-size: 10px;&quot;&gt;&lt;sub&gt;2&lt;/sub&gt;&lt;/span&gt;" style="ellipse;whiteSpace=wrap;html=1;aspect=fixed;" vertex="1" parent="1">
                    <mxGeometry x="260" y="395" width="30" height="30" as="geometry"/>
                </mxCell>
                <mxCell id="5" value="X&lt;span style=&quot;font-size: 10px;&quot;&gt;&lt;sub&gt;3&lt;/sub&gt;&lt;/span&gt;" style="ellipse;whiteSpace=wrap;html=1;aspect=fixed;" vertex="1" parent="1">
                    <mxGeometry x="260" y="440" width="30" height="30" as="geometry"/>
                </mxCell>
                <mxCell id="6" value="Input" style="rounded=0;whiteSpace=wrap;html=1;strokeColor=default;fontStyle=4;fontSize=13;" vertex="1" parent="1">
                    <mxGeometry x="210" y="290" width="130" height="40" as="geometry"/>
                </mxCell>
                <mxCell id="43" style="edgeStyle=none;html=1;exitX=1;exitY=0.5;exitDx=0;exitDy=0;entryX=0;entryY=0.5;entryDx=0;entryDy=0;fontSize=12;fontColor=#000000;" edge="1" parent="1" source="18" target="28">
                    <mxGeometry relative="1" as="geometry"/>
                </mxCell>
                <mxCell id="18" value="" style="rounded=0;whiteSpace=wrap;html=1;" vertex="1" parent="1">
                    <mxGeometry x="410" y="330" width="130" height="160" as="geometry"/>
                </mxCell>
                <mxCell id="19" value="A" style="ellipse;whiteSpace=wrap;html=1;aspect=fixed;" vertex="1" parent="1">
                    <mxGeometry x="460" y="350" width="30" height="30" as="geometry"/>
                </mxCell>
                <mxCell id="20" value="B" style="ellipse;whiteSpace=wrap;html=1;aspect=fixed;" vertex="1" parent="1">
                    <mxGeometry x="460" y="395" width="30" height="30" as="geometry"/>
                </mxCell>
                <mxCell id="21" value="C" style="ellipse;whiteSpace=wrap;html=1;aspect=fixed;" vertex="1" parent="1">
                    <mxGeometry x="460" y="440" width="30" height="30" as="geometry"/>
                </mxCell>
                <mxCell id="22" value="Action&lt;br&gt;Options" style="rounded=0;whiteSpace=wrap;html=1;strokeColor=default;fontStyle=4;fontSize=13;" vertex="1" parent="1">
                    <mxGeometry x="410" y="290" width="130" height="40" as="geometry"/>
                </mxCell>
                <mxCell id="39" style="edgeStyle=none;html=1;exitX=1;exitY=0.5;exitDx=0;exitDy=0;entryX=0;entryY=0.5;entryDx=0;entryDy=0;entryPerimeter=0;fontSize=12;fontColor=#808080;" edge="1" parent="1" source="23" target="35">
                    <mxGeometry relative="1" as="geometry"/>
                </mxCell>
                <mxCell id="23" value="" style="rounded=0;whiteSpace=wrap;html=1;" vertex="1" parent="1">
                    <mxGeometry x="639" y="435" width="130" height="160" as="geometry"/>
                </mxCell>
                <mxCell id="27" value="Feature &lt;br&gt;Requests" style="rounded=0;whiteSpace=wrap;html=1;strokeColor=default;fontStyle=4;fontSize=13;" vertex="1" parent="1">
                    <mxGeometry x="639" y="395" width="130" height="40" as="geometry"/>
                </mxCell>
                <mxCell id="28" value="" style="rounded=0;whiteSpace=wrap;html=1;" vertex="1" parent="1">
                    <mxGeometry x="639" y="204" width="130" height="160" as="geometry"/>
                </mxCell>
                <mxCell id="29" value="Base cost" style="rounded=0;whiteSpace=wrap;html=1;strokeColor=default;fontSize=12;" vertex="1" parent="1">
                    <mxGeometry x="659" y="224" width="90" height="30" as="geometry"/>
                </mxCell>
                <mxCell id="30" value="High frequency charge" style="rounded=0;whiteSpace=wrap;html=1;strokeColor=#808080;fontSize=12;dashed=1;fontColor=#808080;" vertex="1" parent="1">
                    <mxGeometry x="659" y="269" width="90" height="30" as="geometry"/>
                </mxCell>
                <mxCell id="31" value="Additional costs" style="rounded=0;whiteSpace=wrap;html=1;strokeColor=#808080;fontSize=12;dashed=1;fontColor=#808080;" vertex="1" parent="1">
                    <mxGeometry x="659" y="314" width="90" height="30" as="geometry"/>
                </mxCell>
                <mxCell id="32" value="Costs" style="rounded=0;whiteSpace=wrap;html=1;strokeColor=default;fontStyle=4;fontSize=13;" vertex="1" parent="1">
                    <mxGeometry x="639" y="164" width="130" height="40" as="geometry"/>
                </mxCell>
                <mxCell id="44" style="edgeStyle=none;html=1;exitX=1;exitY=0.5;exitDx=0;exitDy=0;exitPerimeter=0;entryX=0.5;entryY=1;entryDx=0;entryDy=0;fontSize=12;fontColor=#000000;" edge="1" parent="1" source="35" target="42">
                    <mxGeometry relative="1" as="geometry">
                        <Array as="points">
                            <mxPoint x="1050" y="515"/>
                            <mxPoint x="1050" y="680"/>
                            <mxPoint x="80" y="680"/>
                        </Array>
                    </mxGeometry>
                </mxCell>
                <mxCell id="35" value="&lt;br&gt;&lt;br&gt;&lt;br&gt;Stack of features&lt;br&gt;made available&lt;br&gt;at future&lt;br&gt;time steps" style="strokeWidth=1;html=1;shape=mxgraph.flowchart.database;whiteSpace=wrap;fontSize=15;" vertex="1" parent="1">
                    <mxGeometry x="849" y="431.5" width="151" height="167" as="geometry"/>
                </mxCell>
                <mxCell id="36" value="&lt;br&gt;&lt;br&gt;&lt;br&gt;Total&amp;nbsp;&lt;br&gt;costs" style="strokeWidth=1;html=1;shape=mxgraph.flowchart.database;whiteSpace=wrap;fontSize=15;" vertex="1" parent="1">
                    <mxGeometry x="849" y="200.5" width="151" height="167" as="geometry"/>
                </mxCell>
                <mxCell id="37" value="" style="endArrow=classic;html=1;fontSize=12;fontColor=#808080;entryX=0;entryY=0.5;entryDx=0;entryDy=0;entryPerimeter=0;exitX=1;exitY=0.5;exitDx=0;exitDy=0;" edge="1" parent="1" source="28" target="36">
                    <mxGeometry relative="1" as="geometry">
                        <mxPoint x="530" y="351" as="sourcePoint"/>
                        <mxPoint x="630" y="351" as="targetPoint"/>
                    </mxGeometry>
                </mxCell>
                <mxCell id="38" value="add" style="edgeLabel;resizable=0;html=1;align=center;verticalAlign=middle;dashed=1;strokeColor=#808080;strokeWidth=1;fontSize=12;fontColor=#808080;" connectable="0" vertex="1" parent="37">
                    <mxGeometry relative="1" as="geometry"/>
                </mxCell>
                <mxCell id="46" style="edgeStyle=none;html=1;exitX=1;exitY=0.5;exitDx=0;exitDy=0;fontSize=12;fontColor=#000000;" edge="1" parent="1" source="41">
                    <mxGeometry relative="1" as="geometry">
                        <mxPoint x="210" y="410" as="targetPoint"/>
                    </mxGeometry>
                </mxCell>
                <mxCell id="41" value="Free&lt;br&gt;incoming&lt;br&gt;information" style="whiteSpace=wrap;html=1;aspect=fixed;strokeColor=#000000;strokeWidth=1;fontSize=12;fontColor=#000000;" vertex="1" parent="1">
                    <mxGeometry x="40" y="287.5" width="80" height="80" as="geometry"/>
                </mxCell>
                <mxCell id="45" style="edgeStyle=none;html=1;exitX=1;exitY=0.5;exitDx=0;exitDy=0;entryX=0;entryY=0.5;entryDx=0;entryDy=0;fontSize=12;fontColor=#000000;" edge="1" parent="1" source="42" target="2">
                    <mxGeometry relative="1" as="geometry"/>
                </mxCell>
                <mxCell id="42" value="Previously requested features" style="whiteSpace=wrap;html=1;aspect=fixed;strokeColor=#000000;strokeWidth=1;fontSize=12;fontColor=#000000;" vertex="1" parent="1">
                    <mxGeometry x="40" y="452.5" width="80" height="80" as="geometry"/>
                </mxCell>
                <mxCell id="24" value="X&lt;sub&gt;1&lt;/sub&gt;" style="ellipse;whiteSpace=wrap;html=1;aspect=fixed;" vertex="1" parent="1">
                    <mxGeometry x="689" y="455" width="30" height="30" as="geometry"/>
                </mxCell>
                <mxCell id="25" value="X&lt;span style=&quot;font-size: 10px;&quot;&gt;&lt;sub&gt;2&lt;/sub&gt;&lt;/span&gt;" style="ellipse;whiteSpace=wrap;html=1;aspect=fixed;" vertex="1" parent="1">
                    <mxGeometry x="689" y="500" width="30" height="30" as="geometry"/>
                </mxCell>
                <mxCell id="26" value="X&lt;span style=&quot;font-size: 10px;&quot;&gt;&lt;sub&gt;3&lt;/sub&gt;&lt;/span&gt;" style="ellipse;whiteSpace=wrap;html=1;aspect=fixed;" vertex="1" parent="1">
                    <mxGeometry x="689" y="545" width="30" height="30" as="geometry"/>
                </mxCell>
                <mxCell id="47" style="edgeStyle=none;html=1;exitX=1;exitY=0.5;exitDx=0;exitDy=0;entryX=0;entryY=0.5;entryDx=0;entryDy=0;fontSize=12;fontColor=#000000;dashed=1;strokeColor=#808080;" edge="1" parent="1" source="19" target="24">
                    <mxGeometry relative="1" as="geometry"/>
                </mxCell>
                <mxCell id="48" style="edgeStyle=none;html=1;exitX=1;exitY=0.5;exitDx=0;exitDy=0;entryX=0;entryY=0.5;entryDx=0;entryDy=0;fontSize=12;fontColor=#000000;dashed=1;strokeColor=#808080;" edge="1" parent="1" source="20" target="25">
                    <mxGeometry relative="1" as="geometry"/>
                </mxCell>
                <mxCell id="49" style="edgeStyle=none;html=1;exitX=1;exitY=0.5;exitDx=0;exitDy=0;entryX=0;entryY=0.5;entryDx=0;entryDy=0;fontSize=12;fontColor=#000000;strokeColor=#0066CC;strokeWidth=2;" edge="1" parent="1" source="21" target="25">
                    <mxGeometry relative="1" as="geometry"/>
                </mxCell>
                <mxCell id="50" style="edgeStyle=none;html=1;exitX=1;exitY=0.5;exitDx=0;exitDy=0;entryX=0;entryY=0.5;entryDx=0;entryDy=0;fontSize=12;fontColor=#000000;strokeColor=#0066CC;strokeWidth=2;" edge="1" parent="1" source="21" target="26">
                    <mxGeometry relative="1" as="geometry"/>
                </mxCell>
                <mxCell id="52" value="C" style="ellipse;whiteSpace=wrap;html=1;aspect=fixed;fillColor=none;strokeColor=#0066CC;strokeWidth=2;" vertex="1" parent="1">
                    <mxGeometry x="456" y="436" width="38" height="38" as="geometry"/>
                </mxCell>
            </root>
        </mxGraphModel>
    </diagram>
    <diagram name="Copy of Page-1" id="kZKNEYTjuFX22oQ4ZyET">
        <mxGraphModel dx="1257" dy="927" grid="1" gridSize="10" guides="1" tooltips="1" connect="1" arrows="1" fold="1" page="1" pageScale="1" pageWidth="1169" pageHeight="827" math="0" shadow="0">
            <root>
                <mxCell id="bHx7RATUn0veEgDF6JpA-0"/>
                <mxCell id="bHx7RATUn0veEgDF6JpA-1" parent="bHx7RATUn0veEgDF6JpA-0"/>
                <mxCell id="bHx7RATUn0veEgDF6JpA-2" style="edgeStyle=none;html=1;exitX=1;exitY=0.5;exitDx=0;exitDy=0;entryX=0;entryY=0.5;entryDx=0;entryDy=0;fontSize=12;fontColor=#808080;strokeColor=#0066CC;" edge="1" parent="bHx7RATUn0veEgDF6JpA-1" source="bHx7RATUn0veEgDF6JpA-3" target="bHx7RATUn0veEgDF6JpA-9">
                    <mxGeometry relative="1" as="geometry"/>
                </mxCell>
                <mxCell id="bHx7RATUn0veEgDF6JpA-3" value="" style="rounded=0;whiteSpace=wrap;html=1;" vertex="1" parent="bHx7RATUn0veEgDF6JpA-1">
                    <mxGeometry x="210" y="330" width="130" height="160" as="geometry"/>
                </mxCell>
                <mxCell id="bHx7RATUn0veEgDF6JpA-4" value="X&lt;sub&gt;1&lt;/sub&gt;" style="ellipse;whiteSpace=wrap;html=1;aspect=fixed;" vertex="1" parent="bHx7RATUn0veEgDF6JpA-1">
                    <mxGeometry x="260" y="350" width="30" height="30" as="geometry"/>
                </mxCell>
                <mxCell id="bHx7RATUn0veEgDF6JpA-5" value="X&lt;span style=&quot;font-size: 10px;&quot;&gt;&lt;sub&gt;2&lt;/sub&gt;&lt;/span&gt;" style="ellipse;whiteSpace=wrap;html=1;aspect=fixed;" vertex="1" parent="bHx7RATUn0veEgDF6JpA-1">
                    <mxGeometry x="260" y="395" width="30" height="30" as="geometry"/>
                </mxCell>
                <mxCell id="bHx7RATUn0veEgDF6JpA-6" value="X&lt;span style=&quot;font-size: 10px;&quot;&gt;&lt;sub&gt;3&lt;/sub&gt;&lt;/span&gt;" style="ellipse;whiteSpace=wrap;html=1;aspect=fixed;" vertex="1" parent="bHx7RATUn0veEgDF6JpA-1">
                    <mxGeometry x="260" y="440" width="30" height="30" as="geometry"/>
                </mxCell>
                <mxCell id="bHx7RATUn0veEgDF6JpA-7" value="Input" style="rounded=0;whiteSpace=wrap;html=1;strokeColor=default;fontStyle=4;fontSize=13;" vertex="1" parent="bHx7RATUn0veEgDF6JpA-1">
                    <mxGeometry x="210" y="290" width="130" height="40" as="geometry"/>
                </mxCell>
                <mxCell id="bHx7RATUn0veEgDF6JpA-8" style="edgeStyle=none;html=1;exitX=1;exitY=0.5;exitDx=0;exitDy=0;entryX=0;entryY=0.5;entryDx=0;entryDy=0;fontSize=12;fontColor=#000000;strokeColor=#0066CC;" edge="1" parent="bHx7RATUn0veEgDF6JpA-1" source="bHx7RATUn0veEgDF6JpA-9" target="bHx7RATUn0veEgDF6JpA-17">
                    <mxGeometry relative="1" as="geometry"/>
                </mxCell>
                <mxCell id="bHx7RATUn0veEgDF6JpA-9" value="" style="rounded=0;whiteSpace=wrap;html=1;" vertex="1" parent="bHx7RATUn0veEgDF6JpA-1">
                    <mxGeometry x="410" y="330" width="130" height="160" as="geometry"/>
                </mxCell>
                <mxCell id="bHx7RATUn0veEgDF6JpA-10" value="A" style="ellipse;whiteSpace=wrap;html=1;aspect=fixed;" vertex="1" parent="bHx7RATUn0veEgDF6JpA-1">
                    <mxGeometry x="460" y="350" width="30" height="30" as="geometry"/>
                </mxCell>
                <mxCell id="bHx7RATUn0veEgDF6JpA-11" value="B" style="ellipse;whiteSpace=wrap;html=1;aspect=fixed;" vertex="1" parent="bHx7RATUn0veEgDF6JpA-1">
                    <mxGeometry x="460" y="395" width="30" height="30" as="geometry"/>
                </mxCell>
                <mxCell id="bHx7RATUn0veEgDF6JpA-12" value="C" style="ellipse;whiteSpace=wrap;html=1;aspect=fixed;strokeColor=#0066CC;strokeWidth=2;" vertex="1" parent="bHx7RATUn0veEgDF6JpA-1">
                    <mxGeometry x="460" y="440" width="30" height="30" as="geometry"/>
                </mxCell>
                <mxCell id="bHx7RATUn0veEgDF6JpA-13" value="Action&lt;br&gt;Options" style="rounded=0;whiteSpace=wrap;html=1;strokeColor=default;fontStyle=4;fontSize=13;" vertex="1" parent="bHx7RATUn0veEgDF6JpA-1">
                    <mxGeometry x="410" y="290" width="130" height="40" as="geometry"/>
                </mxCell>
                <mxCell id="bHx7RATUn0veEgDF6JpA-14" style="edgeStyle=none;html=1;exitX=1;exitY=0.5;exitDx=0;exitDy=0;entryX=0;entryY=0.5;entryDx=0;entryDy=0;entryPerimeter=0;fontSize=12;fontColor=#808080;strokeColor=#0066CC;" edge="1" parent="bHx7RATUn0veEgDF6JpA-1" source="bHx7RATUn0veEgDF6JpA-15" target="bHx7RATUn0veEgDF6JpA-23">
                    <mxGeometry relative="1" as="geometry"/>
                </mxCell>
                <mxCell id="bHx7RATUn0veEgDF6JpA-15" value="" style="rounded=0;whiteSpace=wrap;html=1;" vertex="1" parent="bHx7RATUn0veEgDF6JpA-1">
                    <mxGeometry x="639" y="435" width="130" height="160" as="geometry"/>
                </mxCell>
                <mxCell id="bHx7RATUn0veEgDF6JpA-16" value="Feature &lt;br&gt;Requests" style="rounded=0;whiteSpace=wrap;html=1;strokeColor=default;fontStyle=4;fontSize=13;" vertex="1" parent="bHx7RATUn0veEgDF6JpA-1">
                    <mxGeometry x="639" y="395" width="130" height="40" as="geometry"/>
                </mxCell>
                <mxCell id="bHx7RATUn0veEgDF6JpA-17" value="" style="rounded=0;whiteSpace=wrap;html=1;" vertex="1" parent="bHx7RATUn0veEgDF6JpA-1">
                    <mxGeometry x="639" y="204" width="130" height="160" as="geometry"/>
                </mxCell>
                <mxCell id="bHx7RATUn0veEgDF6JpA-18" value="Base cost" style="rounded=0;whiteSpace=wrap;html=1;strokeColor=default;fontSize=12;" vertex="1" parent="bHx7RATUn0veEgDF6JpA-1">
                    <mxGeometry x="659" y="224" width="90" height="30" as="geometry"/>
                </mxCell>
                <mxCell id="bHx7RATUn0veEgDF6JpA-19" value="High frequency charge" style="rounded=0;whiteSpace=wrap;html=1;strokeColor=#808080;fontSize=12;dashed=1;fontColor=#808080;" vertex="1" parent="bHx7RATUn0veEgDF6JpA-1">
                    <mxGeometry x="659" y="269" width="90" height="30" as="geometry"/>
                </mxCell>
                <mxCell id="bHx7RATUn0veEgDF6JpA-20" value="Additional costs" style="rounded=0;whiteSpace=wrap;html=1;strokeColor=#808080;fontSize=12;dashed=1;fontColor=#808080;" vertex="1" parent="bHx7RATUn0veEgDF6JpA-1">
                    <mxGeometry x="659" y="314" width="90" height="30" as="geometry"/>
                </mxCell>
                <mxCell id="bHx7RATUn0veEgDF6JpA-21" value="Costs" style="rounded=0;whiteSpace=wrap;html=1;strokeColor=default;fontStyle=4;fontSize=13;" vertex="1" parent="bHx7RATUn0veEgDF6JpA-1">
                    <mxGeometry x="639" y="164" width="130" height="40" as="geometry"/>
                </mxCell>
                <mxCell id="bHx7RATUn0veEgDF6JpA-22" style="edgeStyle=none;html=1;exitX=1;exitY=0.5;exitDx=0;exitDy=0;exitPerimeter=0;entryX=0.5;entryY=1;entryDx=0;entryDy=0;fontSize=12;fontColor=#000000;strokeColor=#0066CC;" edge="1" parent="bHx7RATUn0veEgDF6JpA-1" source="bHx7RATUn0veEgDF6JpA-23" target="bHx7RATUn0veEgDF6JpA-30">
                    <mxGeometry relative="1" as="geometry">
                        <Array as="points">
                            <mxPoint x="1030" y="515"/>
                            <mxPoint x="1030" y="610"/>
                            <mxPoint x="80" y="610"/>
                        </Array>
                    </mxGeometry>
                </mxCell>
                <mxCell id="bHx7RATUn0veEgDF6JpA-23" value="&lt;br&gt;&lt;br&gt;&lt;br&gt;Stack of features&lt;br&gt;available&lt;br&gt;at future&lt;br&gt;time steps" style="strokeWidth=1;html=1;shape=mxgraph.flowchart.database;whiteSpace=wrap;fontSize=15;" vertex="1" parent="bHx7RATUn0veEgDF6JpA-1">
                    <mxGeometry x="849" y="431.5" width="151" height="167" as="geometry"/>
                </mxCell>
                <mxCell id="bHx7RATUn0veEgDF6JpA-24" value="&lt;br&gt;&lt;br&gt;&lt;br&gt;Total&amp;nbsp;&lt;br&gt;costs" style="strokeWidth=1;html=1;shape=mxgraph.flowchart.database;whiteSpace=wrap;fontSize=15;" vertex="1" parent="bHx7RATUn0veEgDF6JpA-1">
                    <mxGeometry x="849" y="200.5" width="151" height="167" as="geometry"/>
                </mxCell>
                <mxCell id="bHx7RATUn0veEgDF6JpA-25" value="" style="endArrow=classic;html=1;fontSize=12;fontColor=#808080;entryX=0;entryY=0.5;entryDx=0;entryDy=0;entryPerimeter=0;exitX=1;exitY=0.5;exitDx=0;exitDy=0;strokeColor=#0066CC;" edge="1" parent="bHx7RATUn0veEgDF6JpA-1" source="bHx7RATUn0veEgDF6JpA-17" target="bHx7RATUn0veEgDF6JpA-24">
                    <mxGeometry relative="1" as="geometry">
                        <mxPoint x="530" y="351" as="sourcePoint"/>
                        <mxPoint x="630" y="351" as="targetPoint"/>
                    </mxGeometry>
                </mxCell>
                <mxCell id="bHx7RATUn0veEgDF6JpA-26" value="add" style="edgeLabel;resizable=0;html=1;align=center;verticalAlign=middle;dashed=1;strokeColor=#808080;strokeWidth=1;fontSize=12;fontColor=#808080;" connectable="0" vertex="1" parent="bHx7RATUn0veEgDF6JpA-25">
                    <mxGeometry relative="1" as="geometry"/>
                </mxCell>
                <mxCell id="bHx7RATUn0veEgDF6JpA-27" style="edgeStyle=none;html=1;exitX=1;exitY=0.5;exitDx=0;exitDy=0;fontSize=12;fontColor=#000000;strokeColor=#0066CC;" edge="1" parent="bHx7RATUn0veEgDF6JpA-1" source="bHx7RATUn0veEgDF6JpA-28">
                    <mxGeometry relative="1" as="geometry">
                        <mxPoint x="210" y="410" as="targetPoint"/>
                    </mxGeometry>
                </mxCell>
                <mxCell id="bHx7RATUn0veEgDF6JpA-28" value="Free&lt;br&gt;incoming&lt;br&gt;information" style="whiteSpace=wrap;html=1;aspect=fixed;strokeColor=#000000;strokeWidth=1;fontSize=12;fontColor=#000000;" vertex="1" parent="bHx7RATUn0veEgDF6JpA-1">
                    <mxGeometry x="40" y="287.5" width="80" height="80" as="geometry"/>
                </mxCell>
                <mxCell id="bHx7RATUn0veEgDF6JpA-29" style="edgeStyle=none;html=1;exitX=1;exitY=0.5;exitDx=0;exitDy=0;entryX=0;entryY=0.5;entryDx=0;entryDy=0;fontSize=12;fontColor=#000000;strokeColor=#0066CC;" edge="1" parent="bHx7RATUn0veEgDF6JpA-1" source="bHx7RATUn0veEgDF6JpA-30" target="bHx7RATUn0veEgDF6JpA-3">
                    <mxGeometry relative="1" as="geometry"/>
                </mxCell>
                <mxCell id="bHx7RATUn0veEgDF6JpA-30" value="Previously requested features" style="whiteSpace=wrap;html=1;aspect=fixed;strokeColor=#000000;strokeWidth=1;fontSize=12;fontColor=#000000;" vertex="1" parent="bHx7RATUn0veEgDF6JpA-1">
                    <mxGeometry x="40" y="452.5" width="80" height="80" as="geometry"/>
                </mxCell>
                <mxCell id="bHx7RATUn0veEgDF6JpA-31" value="X&lt;sub&gt;1&lt;/sub&gt;" style="ellipse;whiteSpace=wrap;html=1;aspect=fixed;" vertex="1" parent="bHx7RATUn0veEgDF6JpA-1">
                    <mxGeometry x="689" y="455" width="30" height="30" as="geometry"/>
                </mxCell>
                <mxCell id="bHx7RATUn0veEgDF6JpA-32" value="X&lt;span style=&quot;font-size: 10px;&quot;&gt;&lt;sub&gt;2&lt;/sub&gt;&lt;/span&gt;" style="ellipse;whiteSpace=wrap;html=1;aspect=fixed;" vertex="1" parent="bHx7RATUn0veEgDF6JpA-1">
                    <mxGeometry x="689" y="500" width="30" height="30" as="geometry"/>
                </mxCell>
                <mxCell id="bHx7RATUn0veEgDF6JpA-33" value="X&lt;span style=&quot;font-size: 10px;&quot;&gt;&lt;sub&gt;3&lt;/sub&gt;&lt;/span&gt;" style="ellipse;whiteSpace=wrap;html=1;aspect=fixed;" vertex="1" parent="bHx7RATUn0veEgDF6JpA-1">
                    <mxGeometry x="689" y="545" width="30" height="30" as="geometry"/>
                </mxCell>
                <mxCell id="bHx7RATUn0veEgDF6JpA-34" style="edgeStyle=none;html=1;exitX=1;exitY=0.5;exitDx=0;exitDy=0;entryX=0;entryY=0.5;entryDx=0;entryDy=0;fontSize=12;fontColor=#000000;dashed=1;strokeColor=#808080;" edge="1" parent="bHx7RATUn0veEgDF6JpA-1" source="bHx7RATUn0veEgDF6JpA-10" target="bHx7RATUn0veEgDF6JpA-31">
                    <mxGeometry relative="1" as="geometry"/>
                </mxCell>
                <mxCell id="bHx7RATUn0veEgDF6JpA-35" style="edgeStyle=none;html=1;exitX=1;exitY=0.5;exitDx=0;exitDy=0;entryX=0;entryY=0.5;entryDx=0;entryDy=0;fontSize=12;fontColor=#000000;dashed=1;strokeColor=#808080;" edge="1" parent="bHx7RATUn0veEgDF6JpA-1" source="bHx7RATUn0veEgDF6JpA-11" target="bHx7RATUn0veEgDF6JpA-32">
                    <mxGeometry relative="1" as="geometry"/>
                </mxCell>
                <mxCell id="bHx7RATUn0veEgDF6JpA-36" style="edgeStyle=none;html=1;exitX=1;exitY=0.5;exitDx=0;exitDy=0;entryX=0;entryY=0.5;entryDx=0;entryDy=0;fontSize=12;fontColor=#000000;strokeColor=#0066CC;strokeWidth=2;" edge="1" parent="bHx7RATUn0veEgDF6JpA-1" source="bHx7RATUn0veEgDF6JpA-12" target="bHx7RATUn0veEgDF6JpA-32">
                    <mxGeometry relative="1" as="geometry"/>
                </mxCell>
                <mxCell id="bHx7RATUn0veEgDF6JpA-37" style="edgeStyle=none;html=1;exitX=1;exitY=0.5;exitDx=0;exitDy=0;entryX=0;entryY=0.5;entryDx=0;entryDy=0;fontSize=12;fontColor=#000000;strokeColor=#0066CC;strokeWidth=2;" edge="1" parent="bHx7RATUn0veEgDF6JpA-1" source="bHx7RATUn0veEgDF6JpA-12" target="bHx7RATUn0veEgDF6JpA-33">
                    <mxGeometry relative="1" as="geometry"/>
                </mxCell>
            </root>
        </mxGraphModel>
    </diagram>
</mxfile>